#!OML:ASF F:\VICON\USERDATA\INSTALL\rory3\rory3.ASF
:FULLY-SPECIFIED
:DEGREES
519
root 9.74218 17.408 15.2544 7.67359 2.92109 1.75491
lowerback 6.4002 1.39152 -0.193416
upperback -1.19057 2.07697 4.79033
thorax -5.0255 1.11348 4.89163
lowerneck -14.4275 -6.82687 -13.7856
upperneck 16.0552 -8.06727 9.41294
head 8.31742 -3.80803 4.45668
rclavicle 9.93923e-015 2.06736e-014
rhumerus -1.69351 -5.61253 -56.4439
rradius 69.4151
rwrist -25.329
rhand -22.5682 21.4271
rfingers 7.12502
rthumb 3.86012 -8.51767
lclavicle 9.93923e-015 2.06736e-014
lhumerus -47.8763 34.9287 19.9662
lradius 30.7845
lwrist 2.28986
lhand -9.56632 398.709
lfingers 7.12502
lthumb 16.4012 68.0353
rfemur -9.10733 6.58833 28.1797
rtibia 32.6235
rfoot -21.3256 7.31087
rtoes 39.9288
lfemur -36.4911 -0.372075 -15.0664
ltibia 42.6234
lfoot -15.5976 3.02567
ltoes -9.61181
520
root 9.76015 17.4298 15.3608 7.836 2.50122 1.42345
lowerback 6.25657 1.63326 -0.0281182
upperback -1.02275 2.40627 4.8756
thorax -4.79459 1.26923 4.85422
lowerneck -14.7332 -6.96099 -13.9781
upperneck 16.1873 -8.17591 9.42478
head 8.43945 -3.86223 4.4716
rclavicle -2.96189e-014 -7.95139e-015
rhumerus -1.49922 -6.30881 -56.5577
rradius 69.0312
rwrist -25.0616
rhand -21.3371 21.4451
rfingers 7.12502
rthumb 5.04883 -8.47472
lclavicle -2.96189e-014 -7.95139e-015
lhumerus -49.5211 34.1915 19.5952
lradius 31.2742
lwrist 3.99272
lhand -10.4043 400.413
lfingers 7.12502
lthumb 15.5943 69.8048
rfemur -8.60966 6.71965 28.3262
rtibia 31.97
rfoot -20.7659 8.28232
rtoes 41.1839
lfemur -37.1235 -0.0632594 -15.4147
ltibia 41.7403
lfoot -15.8016 3.20384
ltoes -9.37196
521
root 9.78763 17.4383 15.4624 8.0819 1.9183 1.1656
lowerback 6.03357 1.95416 0.159764
upperback -0.86222 2.83608 4.88764
thorax -4.52915 1.47357 4.7202
lowerneck -14.512 -7.07479 -14.2077
upperneck 15.8108 -8.31645 9.56914
head 8.30911 -3.93235 4.53993
rclavicle 3.35946e-014 3.81667e-014
rhumerus -1.60639 -6.86322 -56.5325
rradius 68.8965
rwrist -24.9166
rhand -18.262 20.8049
rfingers 7.12502
rthumb 8.01744 -9.023
lclavicle 3.35946e-014 3.81667e-014
lhumerus -51.1391 33.9516 18.9519
lradius 31.3664
lwrist 4.71981
lhand -10.6585 401.17
lfingers 7.12502
lthumb 15.3494 70.5798
rfemur -8.26115 6.71936 28.2535
rtibia 31.3625
rfoot -20.1566 9.72331
rtoes 43.3885
lfemur -37.8695 0.36225 -15.9399
ltibia 40.9284
lfoot -15.9093 3.39491
ltoes -9.70956
522
root 9.81407 17.4347 15.5693 8.1447 1.58294 0.952034
lowerback 6.00253 2.19792 0.312289
upperback -0.704349 3.16504 4.90052
thorax -4.36665 1.63025 4.61532
lowerneck -14.091 -7.13085 -14.4296
upperneck 15.3026 -8.41508 9.79042
head 8.09828 -3.98018 4.64289
rclavicle 6.16232e-015 -9.54166e-015
rhumerus -1.83936 -7.38347 -56.5626
rradius 68.8086
rwrist -24.9189
rhand -22.6554 22.0123
rfingers 7.12502
rthumb 3.77584 -7.93404
lclavicle 6.16232e-015 -9.54166e-015
lhumerus -52.7542 33.6999 18.3045
lradius 31.3682
lwrist 5.30551
lhand -10.6311 401.197
lfingers 7.12502
lthumb 15.3758 70.6057
rfemur -7.64184 6.73746 28.2492
rtibia 30.7888
rfoot -20.0102 10.6229
rtoes 43.8451
lfemur -38.3332 0.688708 -16.551
ltibia 40.1248
lfoot -16.0465 3.37193
ltoes -10.8124
523
root 9.83395 17.4321 15.6804 8.11679 1.43245 0.616408
lowerback 6.10244 2.36262 0.512414
upperback -0.587008 3.40103 4.98544
thorax -4.3136 1.74216 4.56506
lowerneck -14.0327 -7.13714 -14.5704
upperneck 15.2634 -8.41298 9.86816
head 8.08488 -3.98176 4.69364
rclavicle 1.15295e-014 -3.81667e-014
rhumerus -2.23691 -7.64191 -56.5735
rradius 68.8431
rwrist -25.2005
rhand -19.4048 20.2336
rfingers 7.12502
rthumb 6.91443 -9.63349
lclavicle 1.15295e-014 -3.81667e-014
lhumerus -54.421 33.5132 17.658
lradius 31.3439
lwrist 5.59003
lhand -10.6029 400.918
lfingers 7.12502
lthumb 15.403 70.3241
rfemur -6.91368 6.75027 28.5096
rtibia 30.2675
rfoot -19.7884 10.9824
rtoes 42.3215
lfemur -38.703 1.05993 -17.0807
ltibia 39.3763
lfoot -16.2655 3.33346
ltoes -13.8132
524
root 9.85473 17.4343 15.7894 8.19148 1.32535 0.149315
lowerback 6.19236 2.52026 0.872322
upperback -0.505008 3.64269 5.11002
thorax -4.284 1.85425 4.4654
lowerneck -14.0199 -7.18165 -14.8407
upperneck 15.1854 -8.44168 10.0267
head 8.08058 -3.99669 4.78756
rclavicle -4.37326e-014 2.54444e-014
rhumerus -2.62178 -7.92895 -56.5944
rradius 68.8671
rwrist -25.3561
rhand -18.7499 19.6395
rfingers 7.12502
rthumb 7.54654 -10.2059
lclavicle -4.37326e-014 2.54444e-014
lhumerus -55.8269 32.9746 17.6335
lradius 31.5062
lwrist 6.30575
lhand -10.8582 401.025
lfingers 7.12502
lthumb 15.1571 70.4497
rfemur -6.29227 6.61412 28.8742
rtibia 29.6707
rfoot -19.0259 11.6348
rtoes 43.0853
lfemur -39.2833 1.43135 -17.4702
ltibia 38.6717
lfoot -16.5178 2.97681
ltoes -13.7773
